<svg width="341" height="306" viewBox="0 0 341 306" fill="none" xmlns="http://www.w3.org/2000/svg"><g id="Group"><g id="tranlsate" style=" animation: translateY 2s linear infinite; transform-origin: center; transform-box: fill-box;"><g id="Group_2"><path id="Vector" d="M159.96 143.32C159.94 144.03 159.5 144.61 159.16 145.13C158.76 145.73 158.44 146.36 158.12 146.99C157.44 148.31 156.68 149.59 155.95 150.88C155.54 151.6 155.15 152.38 154.76 153.13C154.24 154.15 153.71 155.18 153.06 156.15C152.28 157.31 151.76 158.64 151.09 159.87C150.61 160.75 150.08 161.61 149.57 162.47C149.51 162.57 149.47 162.67 149.42 162.77C148.74 164.04 148.06 165.32 147.37 166.59C146.81 167.6 146.17 168.57 145.64 169.59C144.94 170.94 144.16 172.24 143.47 173.59C142.67 175.14 141.86 176.69 140.88 178.15C140.36 178.91 140.02 179.78 139.6 180.61C138.82 182.13 138.04 183.65 137.07 185.07C136.84 185.4 136.65 185.77 136.49 186.14C135.83 187.64 134.98 189.03 134.13 190.43C133.3 191.78 132.71 193.28 131.92 194.65C131.32 195.7 130.86 196.84 130.02 197.75C129.95 197.72 129.83 197.7 129.82 197.66C129.72 197.1 129.65 196.54 129.53 195.98C129.42 195.43 129.25 194.9 129.14 194.35C128.94 193.36 128.6 192.41 128.37 191.44C128.04 190.06 127.59 188.73 127.19 187.37C126.65 185.52 125.98 183.73 125.26 181.94C124.53 180.12 123.8 178.31 123.03 176.51C122.59 175.47 121.99 174.5 121.38 173.33C121.02 174.14 120.69 174.78 120.45 175.46C119.91 176.96 119.43 178.47 118.91 179.98C118.55 181.03 118.07 182.05 117.83 183.12C117.51 184.5 116.98 185.82 116.71 187.22C116.48 188.43 116.04 189.6 115.87 190.83C115.8 191.35 115.75 191.92 115.57 192.38C115.2 193.31 115.25 194.3 114.94 195.23C114.76 195.76 114.72 196.35 114.69 196.92C114.66 197.5 114.48 198.05 114.39 198.61C114.29 199.22 114.37 199.88 114.16 200.42C113.97 200.93 114.02 201.4 113.96 201.89C113.9 202.38 113.77 202.86 113.73 203.35C113.66 204.16 113.75 204.96 113.52 205.78C113.34 206.45 113.51 207.21 113.47 207.93C113.43 208.66 113.26 209.38 113.25 210.11C113.22 211.87 113.21 213.63 113.25 215.38C113.29 217.15 113.11 218.91 113.46 220.68C113.68 221.78 113.41 222.92 113.69 224.06C113.9 224.94 113.74 225.9 113.94 226.83C114.14 227.77 114.13 228.76 114.21 229.72C114.22 229.8 114.18 229.92 114.22 229.95C114.76 230.4 114.33 231.05 114.57 231.61C114.8 232.15 114.67 232.85 114.7 233.47C113.85 233.3 112.97 233.23 112.16 232.93C111.42 232.66 110.65 232.44 109.91 232.32C108.86 232.14 107.91 231.7 106.89 231.46C105.95 231.24 105.01 230.82 104.08 230.46C102.42 229.8 100.81 229.08 99.25 228.23C98.77 227.97 98.21 227.86 97.71 227.62C95.98 226.8 94.43 225.69 92.82 224.66C92.19 224.26 91.5001 223.92 90.9301 223.46C90.3701 223 89.77 222.6 89.18 222.19C88.71 221.86 88.32 221.43 87.85 221.08C87 220.46 86.26 219.69 85.47 218.99C84.89 218.47 84.26 218.01 83.71 217.46C82.44 216.16 81.14 214.88 79.99 213.48C78.41 211.57 76.87 209.62 75.48 207.56C74.66 206.34 73.84 205.12 73.02 203.9C72.9 203.71 72.79 203.52 72.68 203.32C71.98 202.05 71.27 200.79 70.59 199.51C70 198.4 69.43 197.27 68.87 196.15C68.51 195.42 68.1 194.7 67.87 193.93C67.64 193.14 67.2 192.45 66.93 191.68C66.57 190.68 66.13 189.69 65.7 188.72C65.15 187.49 64.81 186.21 64.36 184.96C63.78 183.32 63.26 181.65 62.77 179.98C62.3 178.37 61.94 176.73 61.45 175.13C61.18 174.24 61.06 173.31 60.79 172.41C60.63 171.89 60.68 171.28 60.52 170.72C60.38 170.21 60.43 169.64 60.25 169.15C59.98 168.43 59.98 167.66 59.77 166.95C59.46 165.9 59.6 164.76 59.08 163.76C59.24 163.05 58.84 162.4 58.83 161.7C58.82 161.29 58.68 160.89 58.6 160.48C58.53 160.07 58.78 159.6 58.37 159.25C58.33 159.22 58.36 159.1 58.36 159.02C58.28 158.09 58.18 157.17 58.13 156.24C58.1 155.78 57.79 155.4 57.86 154.9C57.92 154.5 58.01 154.03 57.64 153.68C57.62 153.66 57.63 153.6 57.64 153.56C57.81 152.42 57.39 151.32 57.39 150.18C57.39 149.45 57.52 148.7 57.17 148C57.09 147.85 57.16 147.62 57.16 147.31C57.44 147.55 57.58 147.77 57.78 147.93C59.04 148.9 60.36 149.78 61.72 150.6C62.86 151.29 64.13 151.73 65.38 152.17C65.94 152.37 66.52 152.53 67.1 152.65C67.7 152.77 68.31 152.85 68.92 152.89C69.38 152.92 69.76 153.23 70.26 153.16C70.66 153.1 71.1 153.04 71.49 153.36C71.63 153.48 71.95 153.38 72.19 153.38C73.83 153.38 75.47 153.4 77.1 153.37C77.67 153.36 78.23 153.21 78.8 153.14C79.33 153.08 79.89 153.28 80.38 152.91C80.46 152.85 80.62 152.88 80.73 152.91C81.48 153.06 82.17 152.63 82.91 152.66C83.61 152.69 84.23 152.28 84.87 152.23C85.99 152.14 86.98 151.68 88.04 151.45C89.09 151.22 90.12 150.9 91.12 150.5C93.55 149.52 96.12 148.89 98.45 147.65C99.03 147.34 99.6501 147.07 100.3 146.92C100.96 147.46 101.67 147.93 102.26 148.54C104.49 150.85 106.95 152.94 108.97 155.46C109.68 156.34 110.49 157.15 111.25 157.99C111.33 158.08 111.44 158.15 111.5 158.25C112.16 159.28 112.99 160.18 113.7 161.17C114.43 162.18 115.17 163.19 115.88 164.22C116.58 165.24 117.31 166.26 117.93 167.33C118.79 168.81 119.81 170.19 120.49 171.78C120.68 172.23 120.98 172.64 121.28 173.14C121.52 172.77 121.76 172.53 121.83 172.26C122.13 170.94 123.06 169.89 123.37 168.58C125.15 165.2 126.8 161.75 128.81 158.49C129.69 157.06 130.6 155.64 131.53 154.24C132.53 152.72 133.62 151.26 134.69 149.78C136.26 147.6 138 145.57 139.66 143.47C140.83 141.99 142.22 140.67 143.54 139.32C145.1 137.72 146.7 136.15 148.28 134.57C148.47 134.38 148.63 134.18 148.83 133.95C147.28 132.4 145.79 130.9 144.29 129.42C143.87 129.01 143.42 128.63 142.99 128.23C143.39 127.71 144.04 127.51 144.58 127.31C145.59 126.94 146.54 126.44 147.55 126.08C148.98 125.57 150.32 124.87 151.75 124.34C152.67 124 153.56 123.51 154.48 123.11C155.94 122.48 157.37 121.8 158.87 121.27C159.18 121.16 159.46 120.95 159.75 120.8C160.6 120.35 161.51 120.02 162.39 119.64C163.23 119.27 164.04 118.82 164.96 118.6C165.55 118.46 166.08 118.06 166.73 117.73C166.77 117.29 166.69 116.75 166.53 116.18C166.11 114.63 165.64 113.1 165.29 111.53C164.99 110.18 164.53 108.87 164.33 107.49C164.3 107.29 164.1 107.11 163.97 106.89C162.61 107.38 161.24 107.92 159.84 108.38C158.53 108.81 157.21 109.19 155.88 109.51C154.31 109.89 152.75 110.36 151.13 110.48C150.69 110.85 150.09 110.55 149.69 110.76C149.18 111.02 148.67 110.82 148.22 110.98C147.57 111.21 146.9 111.08 146.28 111.23C145.63 111.39 144.95 111.29 144.34 111.47C143.09 111.83 141.81 111.46 140.6 111.71C138.91 112.06 137.22 111.86 135.54 111.9C134.74 111.92 133.93 111.73 133.12 111.69C132.32 111.65 131.52 111.69 130.72 111.67C130.66 111.67 130.59 111.52 130.53 111.44C130.47 110.77 129.98 110.29 129.66 109.77C128.76 108.35 127.97 106.88 127.19 105.39C125.2 101.63 123.38 97.79 121.7 93.88C121.16 92.62 120.69 91.33 120.26 90.04C119.3 87.2 118.24 84.39 117.48 81.48C117.23 80.51 116.95 79.55 116.68 78.58C116.47 77.87 116.35 77.12 116.17 76.39C115.99 75.66 115.88 74.92 115.69 74.19C115.55 73.68 115.61 73.1 115.41 72.63C115.19 72.1 115.35 71.52 115.16 71.06C114.91 70.45 114.91 69.81 114.74 69.2C114.56 68.54 114.59 67.83 114.47 67.15C114.35 66.47 114.16 65.8 114.24 65.09C113.85 64.7 114.06 64.2 114 63.75C113.94 63.3 113.75 62.85 113.78 62.41C113.88 61.15 113.35 59.96 113.56 58.56C112.49 59.14 111.45 59.26 110.48 59.63C109.48 60.01 108.43 60.32 107.4 60.56C105.42 61.01 103.46 61.54 101.44 61.84C100.87 61.92 100.2 61.84 99.77 62.1C99.3 62.37 98.83 62.1 98.44 62.38C98.01 62.69 97.5201 62.45 97.0601 62.52C96.9401 62.54 96.78 62.47 96.71 62.53C96.34 62.84 95.9 62.8 95.49 62.75C95 62.69 94.6 62.98 94.15 63C93.26 63.04 92.38 63.03 91.49 63.21C90.65 63.38 89.74 63.22 88.86 63.26C87.97 63.3 87.09 63.45 86.2 63.48C85.12 63.52 84.04 63.52 82.96 63.48C81.91 63.44 80.87 63.3 79.82 63.26C78.98 63.22 78.1 63.4 77.32 63.2C76.73 63.05 76.17 62.97 75.61 63.03C74.96 63.1 74.41 62.78 73.79 62.76C72.82 62.72 71.86 62.61 70.89 62.53C70.82 62.52 70.74 62.5 70.67 62.47C69.95 62.2 69.18 62.22 68.45 62.05C68.56 61.19 68.97 60.42 69.32 59.66C70.11 57.95 70.78 56.19 71.58 54.49C72.04 53.52 72.51 52.56 73.01 51.61C73.47 50.72 73.99 49.86 74.44 48.97C74.89 48.07 75.36 47.19 75.85 46.32C77.04 44.19 78.35 42.15 79.7 40.13C80.2 39.38 80.7 38.61 81.26 37.91C81.81 37.22 82.27 36.47 82.83 35.79C84.6 33.6 86.38 31.42 88.46 29.51C88.75 29.24 88.8 28.8 89.27 28.63C89.61 28.51 89.85 28.1 90.13 27.81C90.44 27.5 90.7501 27.19 91.0601 26.88C91.3401 26.6 91.6001 26.28 91.9101 26.04C93.2401 25.02 94.48 23.88 95.89 22.96C96.62 22.48 97.24 21.83 98 21.39C99.54 20.49 100.96 19.37 102.62 18.66C103.03 18.49 103.37 18.16 103.77 17.96C104.69 17.49 105.62 17.04 106.62 16.75C106.86 16.68 107.08 16.52 107.31 16.39C108.28 15.84 109.34 15.51 110.37 15.1C111.81 14.51 113.33 14.13 114.83 13.74C115.76 13.5 116.72 13.22 117.71 13.14C118.15 13.1 118.58 12.88 119.05 12.93C118.68 14.14 118.34 15.35 117.94 16.55C117.52 17.83 117.2 19.12 116.88 20.43C116.67 21.27 116.54 22.13 116.31 22.95C115.86 24.54 115.61 26.17 115.22 27.76C115.08 28.35 115.22 29.07 114.93 29.55C114.56 30.17 115.02 30.9 114.49 31.41C114.49 32.6 114.2 33.76 114.03 34.93C113.93 35.65 113.97 36.38 113.81 37.11C113.64 37.89 113.87 38.74 113.53 39.52C113.64 41.53 113.2 43.51 113.27 45.53C113.36 48.36 113.28 51.2 113.3 54.04C113.31 55.52 113.13 57.01 113.66 58.53C113.93 58.47 114.23 58.44 114.51 58.35C115.39 58.07 116.21 57.6 117.08 57.32C119.13 56.67 121.05 55.71 123 54.84C125.3 53.82 127.47 52.52 129.67 51.29C130.65 50.74 131.57 50.08 132.51 49.46C133.84 48.59 135.18 47.76 136.44 46.78C137.61 45.88 138.8 44.98 140.01 44.14C140.69 43.67 141.21 43.02 141.86 42.53C142.88 41.76 143.89 40.96 144.77 40.05C147.04 37.72 149.51 35.59 151.56 33.05C152.2 32.26 152.92 31.54 153.58 30.77C153.98 30.31 154.41 29.85 154.74 29.33C155.27 28.5 155.94 27.77 156.47 26.94C157.12 25.92 157.87 24.96 158.58 23.98C159.44 22.81 160.06 21.49 160.98 20.37C161.9 20.55 162.72 21 163.58 21.33C165.51 22.08 167.32 23.1 169.19 23.97C171.06 24.84 172.99 25.63 174.78 26.67C176.61 27.73 178.56 28.57 180.36 29.71C181.77 30.6 183.32 31.27 184.74 32.14C185.95 32.89 187.19 33.58 188.36 34.41C189.15 34.97 190 35.48 190.84 35.92C192.41 36.74 193.78 37.86 195.29 38.76C196.32 39.37 197.31 40.06 198.29 40.76C199.83 41.86 201.5 42.77 202.94 43.99C203.07 44.1 203.26 44.16 203.42 44.24C202.64 45.66 201.92 47.09 201.08 48.44C200.24 49.81 199.58 51.28 198.65 52.59C198.4 52.94 198.35 53.43 198.12 53.8C197.25 55.19 196.56 56.69 195.6 58.03C195.36 58.36 195.18 58.73 195.02 59.1C194.24 60.84 193.27 62.47 192.22 64.05C192.06 64.29 192.02 64.61 191.87 64.86C191.09 66.21 190.29 67.57 189.55 68.94C188.66 70.61 187.55 72.15 186.83 73.92C186.46 74.84 185.77 75.63 185.27 76.51C184.68 77.54 184.13 78.59 183.57 79.64C182.83 81.02 182.11 82.41 181.2 83.69C180.99 83.99 180.85 84.34 180.69 84.67C179.85 86.42 178.91 88.11 177.82 89.71C177.63 89.98 177.55 90.32 177.39 90.61C176.14 92.9 174.97 95.22 173.51 97.39C173.25 97.78 173.14 98.28 172.9 98.69C171.89 100.43 170.99 102.23 169.88 103.91C169.35 104.7 169.04 105.64 168.62 106.55C168.86 107.23 169.25 107.92 169.13 108.71C169.74 109.56 169.74 110.61 170.1 111.54C170.41 112.34 170.55 113.19 170.84 113.99C171.12 114.76 171.39 115.52 171.57 116.33C171.71 116.94 172.07 117.51 172.01 118.18C171.86 118.21 171.7 118.2 171.57 118.27C170.22 118.98 168.91 119.78 167.57 120.51C166.55 121.06 165.63 121.76 164.59 122.27C163.82 122.65 163.06 123.09 162.4 123.62C161.48 124.36 160.43 124.88 159.49 125.6C158.32 126.5 157.07 127.29 155.89 128.19C154.58 129.2 153.3 130.25 152.03 131.32C150.98 132.21 149.98 133.15 148.92 134.11C149.99 134.99 150.86 136 151.89 136.87C153.17 137.95 154.4 139.09 155.7 140.14C156.75 140.99 157.73 141.94 158.84 142.73C159.12 142.93 159.4 143.44 159.96 143.32Z" fill="#508AC7"/><path id="Vector_2" d="M191.13 110.47C190.69 111.46 190.51 112.53 190.18 113.55C189.84 114.61 189.61 115.7 189.32 116.78C189.1 117.6 188.66 118.39 188.72 119.3C188.73 119.52 188.56 119.75 188.42 120.11C189.71 119.76 190.76 119.25 191.84 118.79C193.47 118.09 195 117.2 196.72 116.68C197.34 116.49 197.93 116.15 198.54 115.88C199.93 115.28 201.27 114.57 202.65 113.96C203.9 113.41 205.17 112.92 206.43 112.39C206.77 112.25 207.09 112.07 207.43 111.91C209.32 111.07 211.17 110.16 213.11 109.45C214.08 109.09 214.95 108.51 215.91 108.13C217.59 107.46 219.21 106.65 220.86 105.92C220.93 105.89 221.02 105.92 221.1 105.92C221.18 105.84 221.26 105.76 221.34 105.68C221.5 105.68 221.66 105.68 221.82 105.68C221.82 106.01 222.08 105.91 222.25 105.92C224.05 106.02 225.86 105.75 227.66 106.13C228.42 106.29 229.25 106.17 230.05 106.15C230.83 106.13 231.54 106.5 232.34 106.41C233.39 106.29 234.41 106.81 235.47 106.63C235.95 106.98 236.55 106.74 237.04 106.9C237.57 107.07 238.09 107.11 238.63 107.11C238.75 107.11 238.92 107.07 238.98 107.13C239.46 107.68 240.15 107.19 240.74 107.55C241.24 107.86 242 107.75 242.64 107.84C243.2 107.92 243.78 107.96 244.31 108.15C246 108.75 247.77 109 249.5 109.48C251.33 109.98 253.2 110.36 254.98 110.99C256.19 111.42 257.43 111.78 258.62 112.31C259.66 112.77 260.74 113.17 261.81 113.55C263.8 114.25 265.73 115.07 267.62 116C267.94 116.16 268.24 116.28 268.6 116.23C268.84 116.97 269.09 117.7 269.31 118.45C269.44 118.88 269.39 119.42 269.64 119.74C269.98 120.18 269.57 120.67 269.94 121.07C270.26 121.42 269.79 122.02 270.28 122.36C270.3 122.37 270.28 122.44 270.28 122.48C270.36 123.48 270.49 124.49 270.51 125.49C270.55 127.24 270.46 129 270.54 130.76C270.6 131.99 270.43 133.19 270.24 134.37C269.94 136.27 269.38 138.13 268.75 139.96C268.35 141.11 267.95 142.27 267.6 143.44C267.26 144.56 266.86 145.68 266.46 146.79C266.03 147.97 265.46 149.09 264.95 150.24C264.1 152.17 263 153.97 262.11 155.88C261.6 156.99 260.84 157.98 260.19 159.03C259.16 160.69 258.04 162.29 256.99 163.93C256.92 164.05 256.75 164.1 256.62 164.19C255.94 164.27 255.19 164.22 254.59 164.49C254.15 164.68 253.69 164.48 253.37 164.72C252.99 165.01 252.55 164.75 252.26 164.94C251.85 165.2 251.42 165.06 251.03 165.17C250.47 165.32 249.88 165.32 249.34 165.44C249.02 165.52 248.69 165.58 248.35 165.64C247.98 165.7 247.62 165.83 247.25 165.87C246.6 165.94 245.96 165.94 245.31 166.07C244 166.33 242.65 166.36 241.32 166.57C240.45 166.71 239.56 166.63 238.66 166.79C237.69 166.97 236.66 166.9 235.68 166.81C234.65 166.71 233.68 167.1 232.66 167.08C231.14 167.05 229.62 167.12 228.11 167.06C226.59 167 225.07 166.74 223.54 166.83C222.13 166.91 220.75 166.42 219.33 166.59C219.29 166.59 219.24 166.61 219.21 166.59C218.77 166.24 218.24 166.4 217.75 166.35C217.26 166.3 216.78 166.19 216.29 166.12C215.76 166.04 215.25 166.18 214.69 165.92C214.21 165.69 213.53 166.05 213.01 165.64C211.76 165.8 210.61 165.17 209.38 165.15C209.09 165.15 208.81 164.97 208.52 164.93C208.21 164.89 207.85 165.01 207.58 164.89C206.94 164.62 206.26 164.62 205.61 164.45C204.96 164.28 204.29 164.16 203.66 163.96C202.84 163.7 201.98 163.66 201.16 163.35C200.55 163.12 199.89 162.91 199.24 162.79C197.92 162.54 196.69 161.92 195.34 161.79C194.38 161.09 193.17 161.05 192.1 160.66C190.12 159.94 188.18 159.14 186.2 158.41C185.44 158.13 184.72 157.76 183.96 157.46C182.41 156.87 180.91 156.16 179.42 155.42C178.59 155.01 177.79 154.53 176.96 154.12C176.08 153.68 175.13 153.38 174.39 152.69C174.22 151.43 174.5 150.18 174.68 148.97C174.89 147.54 175.18 146.1 175.52 144.67C175.79 143.54 176.02 142.4 176.3 141.28C176.55 140.27 176.7 139.22 177.04 138.23C177.39 137.21 177.71 136.18 177.94 135.14C178.25 133.79 178.78 132.53 179.2 131.23C179.59 130.04 180.14 128.91 180.6 127.74C180.98 126.78 181.35 125.81 181.71 124.85C182.45 122.92 183.22 121 184 119.09C184.78 117.18 185.32 115.17 186.26 113.32C186.52 112.8 186.64 112.2 186.84 111.64C186.87 111.56 186.99 111.51 187.07 111.45C187.61 111.49 188.06 111.18 188.55 111.06C189.39 110.82 190.22 110.43 191.13 110.47Z" fill="#EF97BB"/><path id="Vector_3" d="M174.34 152.67C175.08 153.36 176.04 153.66 176.91 154.1C177.74 154.51 178.54 154.99 179.37 155.4C180.86 156.13 182.36 156.85 183.91 157.44C184.67 157.73 185.39 158.11 186.15 158.39C188.12 159.11 190.07 159.92 192.05 160.64C193.13 161.03 194.33 161.07 195.29 161.77C196.64 161.9 197.87 162.52 199.19 162.77C199.84 162.89 200.5 163.09 201.11 163.33C201.93 163.65 202.79 163.68 203.61 163.94C204.25 164.14 204.91 164.26 205.56 164.43C206.21 164.6 206.89 164.6 207.53 164.87C207.8 164.99 208.16 164.87 208.47 164.91C208.76 164.95 209.04 165.13 209.33 165.13C210.56 165.15 211.71 165.78 212.96 165.62C213.48 166.02 214.16 165.66 214.64 165.9C215.19 166.17 215.71 166.03 216.24 166.1C216.73 166.17 217.21 166.28 217.7 166.33C218.19 166.38 218.72 166.22 219.16 166.57C219.18 166.59 219.24 166.58 219.28 166.57C220.7 166.39 222.08 166.89 223.49 166.81C225.02 166.72 226.54 166.98 228.06 167.04C229.57 167.1 231.09 167.03 232.61 167.06C233.63 167.08 234.59 166.7 235.63 166.79C236.62 166.88 237.65 166.95 238.61 166.77C239.5 166.61 240.4 166.69 241.27 166.55C242.6 166.33 243.95 166.3 245.26 166.05C245.92 165.92 246.56 165.92 247.2 165.85C247.57 165.81 247.93 165.68 248.3 165.62C248.64 165.57 248.97 165.5 249.29 165.42C249.83 165.29 250.42 165.3 250.98 165.15C251.37 165.04 251.8 165.18 252.21 164.92C252.5 164.73 252.94 164.99 253.32 164.7C253.63 164.46 254.1 164.66 254.54 164.47C255.14 164.2 255.89 164.26 256.57 164.17C256.17 165.13 255.49 165.9 254.86 166.69C253.76 168.08 252.69 169.5 251.52 170.84C250.93 171.52 250.27 172.13 249.72 172.84C247.2 176.06 244.17 178.8 241.32 181.69C240.78 182.24 240.15 182.72 239.56 183.22C239 183.7 238.61 184.37 237.88 184.67C237.71 184.74 237.59 184.94 237.45 185.08C236.39 186.18 235.22 187.13 234.01 188.06C232.9 188.91 231.89 189.88 230.81 190.75C229.77 191.59 228.7 192.38 227.62 193.17C226.64 193.88 225.63 194.55 224.65 195.25C223.17 196.31 221.72 197.41 220.22 198.44C218.67 199.5 217.07 200.48 215.51 201.52C214.6 202.12 213.62 202.58 212.74 203.23C211.94 203.82 210.94 204.15 210.15 204.76C209.27 205.43 208.22 205.74 207.33 206.36C206.32 207.07 205.21 207.62 204.16 208.25C202.51 209.24 200.75 210.03 199.04 210.92C198.15 211.38 197.29 211.9 196.4 212.35C195.38 212.86 194.32 213.3 193.29 213.8C192.09 214.38 190.91 214.99 189.71 215.57C188.81 216.01 187.94 216.55 186.99 216.81C186.04 217.07 185.27 217.66 184.32 217.92C183.29 218.2 182.35 218.83 181.22 219.39C181.37 218.98 181.43 218.73 181.55 218.52C182.21 217.33 182.47 216.02 182.78 214.71C182.99 213.81 182.8 212.9 183.02 212.06C183.35 210.8 183.19 209.56 183.21 208.32C183.23 206.83 182.9 205.36 182.95 203.87C182.96 203.46 182.77 202.99 182.74 202.53C182.71 202.12 182.83 201.71 182.61 201.27C182.42 200.88 182.59 200.33 182.5 199.88C182.28 198.79 182.15 197.7 182.01 196.6C181.96 196.18 181.66 195.79 181.47 195.39C180.72 193.83 180 192.25 179.33 190.65C178.83 189.46 178.27 188.29 177.91 187.04C177.45 185.44 176.96 183.83 176.49 182.23C176.1 180.91 175.87 179.55 175.38 178.26C175.22 177.83 175.34 177.39 175.13 176.92C174.87 176.36 174.94 175.65 174.84 175C174.78 174.59 174.68 174.19 174.6 173.78C174.53 173.41 174.78 172.98 174.36 172.68C174.34 172.67 174.35 172.6 174.36 172.56C174.54 171.57 174.18 170.63 174.09 169.67C173.68 165.11 173.97 160.55 173.88 155.99C173.86 154.9 174.25 153.85 174.16 152.75C174.15 152.73 174.28 152.7 174.34 152.67Z" fill="#EC81AC"/><path id="Vector_4" d="M68.37 62.04C69.1 62.21 69.88 62.19 70.59 62.46C70.66 62.49 70.73 62.51 70.81 62.52C71.78 62.6 72.74 62.71 73.71 62.75C74.33 62.78 74.88 63.1 75.53 63.02C76.09 62.96 76.65 63.04 77.24 63.19C78.03 63.39 78.91 63.21 79.74 63.25C80.79 63.3 81.83 63.43 82.88 63.47C83.96 63.51 85.04 63.51 86.12 63.47C87.01 63.44 87.89 63.29 88.78 63.25C89.66 63.21 90.56 63.38 91.41 63.2C92.31 63.02 93.1799 63.03 94.0699 62.99C94.5199 62.97 94.92 62.68 95.41 62.74C95.82 62.79 96.26 62.83 96.63 62.52C96.7 62.46 96.86 62.53 96.98 62.51C97.44 62.44 97.93 62.68 98.36 62.37C98.75 62.08 99.2199 62.36 99.6899 62.09C100.12 61.84 100.8 61.92 101.36 61.83C103.38 61.53 105.34 61 107.32 60.55C108.35 60.31 109.4 60 110.4 59.62C111.37 59.25 112.41 59.13 113.48 58.55C113.27 59.95 113.8 61.14 113.7 62.4C113.67 62.84 113.86 63.29 113.92 63.74C113.98 64.19 113.77 64.69 114.16 65.08C114.08 65.79 114.27 66.46 114.39 67.14C114.51 67.82 114.48 68.53 114.66 69.19C114.83 69.8 114.83 70.44 115.08 71.05C115.27 71.51 115.11 72.09 115.33 72.62C115.53 73.1 115.47 73.67 115.61 74.18C115.81 74.91 115.92 75.65 116.09 76.38C116.27 77.11 116.39 77.86 116.6 78.57C116.88 79.53 117.15 80.5 117.4 81.47C118.16 84.38 119.22 87.19 120.18 90.03C120.61 91.32 121.08 92.61 121.62 93.87C123.29 97.78 125.12 101.62 127.11 105.38C127.89 106.86 128.68 108.34 129.58 109.76C129.91 110.28 130.39 110.76 130.45 111.43C130.01 111.43 129.57 111.44 129.13 111.43C128.59 111.42 128.07 111.45 127.54 111.22C127.07 111.01 126.45 111.4 125.96 110.97C125.87 110.89 125.64 110.93 125.49 110.96C124.77 111.11 124.12 110.77 123.43 110.69C122.77 110.62 122.09 110.35 121.46 110.3C120.46 110.21 119.53 109.89 118.56 109.71C117.14 109.45 115.73 109.08 114.33 108.67C112.48 108.13 110.65 107.52 108.84 106.87C107.1 106.25 105.36 105.64 103.66 104.92C100.97 103.77 98.35 102.49 95.76 101.13C94.84 100.64 93.95 100.1 93.04 99.58C92.26 99.14 91.4699 98.72 90.7199 98.24C90.4999 98.1 90.27 97.97 90.04 97.83C87.08 97.31 84.07 97.61 81.07 97.5C80.5 97.48 80.03 97.75 79.49 97.77C79 97.79 78.53 97.73 78.01 97.95C77.45 98.18 76.74 98.09 76.09 98.21C74.28 98.55 72.51 98.96 70.76 99.53C68.67 100.21 66.72 101.18 64.79 102.19C63.83 102.69 62.93 103.33 62.05 103.96C60.26 105.24 58.63 106.73 57.17 108.37C55.81 109.9 54.54 111.51 53.59 113.35C53.05 114.41 52.37 115.4 51.92 116.49C51.24 118.13 50.52 119.74 50.09 121.49C49.78 122.75 49.3899 124 49.0999 125.27C49.0799 125.37 48.99 125.46 48.93 125.56C48.69 125.56 48.45 125.56 48.21 125.56C48.13 125.5 47.98 125.44 47.98 125.37C47.89 123.93 47.78 122.48 47.75 121.04C47.74 120.44 47.9199 119.83 47.9699 119.22C48.0099 118.62 47.83 117.97 48.01 117.44C48.26 116.71 48.21 115.95 48.43 115.23C48.65 114.52 48.85 113.8 48.96 113.04C49.06 112.32 49.3499 111.61 49.6599 110.94C50.5299 109.06 51.26 107.11 52.44 105.39C53.17 104.33 53.85 103.24 54.65 102.24C55.49 101.2 56.4199 100.24 57.3499 99.29C57.9999 98.62 58.73 98.03 59.45 97.37C59.57 96.82 59.39 96.21 59.67 95.6C59.9 95.11 59.54 94.44 59.95 93.92C59.78 93.13 60.14 92.39 60.21 91.63C60.27 91.01 60.3699 90.37 60.5999 89.77C60.7999 89.24 60.61 88.65 60.87 88.08C61.1 87.58 60.9899 86.94 61.1599 86.4C61.3199 85.91 61.24 85.34 61.62 84.92C61.48 83.9 61.93 82.96 62.15 82.02C62.48 80.61 62.75 79.18 63.18 77.79C63.52 76.7 63.77 75.55 64.06 74.43C64.39 73.15 64.78 71.86 65.23 70.61C65.83 68.94 66.24 67.21 66.89 65.55C67.24 64.66 67.55 63.75 67.87 62.84C68.37 62.76 67.85 62.11 68.37 62.04Z" fill="#1E7ABC"/><path id="Vector_5" d="M160.92 20.32C160 21.44 159.38 22.76 158.52 23.93C157.8 24.91 157.06 25.87 156.41 26.89C155.88 27.72 155.21 28.45 154.68 29.28C154.35 29.8 153.92 30.25 153.52 30.72C152.85 31.49 152.13 32.21 151.5 33C149.45 35.54 146.97 37.67 144.71 40C143.82 40.91 142.82 41.71 141.8 42.48C141.15 42.97 140.63 43.61 139.95 44.09C138.73 44.93 137.55 45.83 136.38 46.73C135.12 47.71 133.78 48.54 132.45 49.41C131.51 50.02 130.59 50.69 129.61 51.24C127.41 52.47 125.23 53.77 122.94 54.79C120.99 55.66 119.07 56.61 117.02 57.27C116.15 57.55 115.34 58.02 114.45 58.3C114.17 58.39 113.87 58.43 113.6 58.48C113.07 56.97 113.25 55.47 113.24 53.99C113.22 51.15 113.3 48.32 113.21 45.48C113.15 43.46 113.58 41.48 113.47 39.47C113.8 38.69 113.57 37.84 113.75 37.06C113.91 36.32 113.87 35.6 113.97 34.88C114.14 33.71 114.44 32.56 114.43 31.36C114.96 30.84 114.5 30.11 114.87 29.5C115.16 29.02 115.02 28.3 115.16 27.71C115.55 26.11 115.8 24.48 116.25 22.9C116.48 22.08 116.61 21.22 116.82 20.38C117.14 19.08 117.46 17.78 117.88 16.5C118.27 15.3 118.62 14.09 118.99 12.88C119.02 12.81 119.04 12.69 119.08 12.68C119.88 12.58 120.68 12.5 121.48 12.39C121.93 12.33 122.37 12.24 122.82 12.15C123.26 12.06 123.75 12.35 124.18 11.93C124.3 11.81 124.64 11.91 124.88 11.91C127.19 11.91 129.51 11.9 131.82 11.92C132.35 11.93 132.87 12.07 133.4 12.15C133.93 12.23 134.44 12.12 135 12.34C135.57 12.57 136.28 12.37 136.92 12.61C137.37 12.78 137.88 12.79 138.37 12.87C138.86 12.95 139.4 12.92 139.81 13.14C140.26 13.38 140.83 13.16 141.18 13.59C142.11 13.57 142.89 14.13 143.78 14.25C144.68 14.37 145.58 14.59 146.42 14.85C147.68 15.24 148.94 15.69 150.2 16.12C152.37 16.85 154.49 17.72 156.67 18.44C157.77 18.8 158.91 19.19 159.92 19.83C160.2 20.04 160.66 19.97 160.92 20.32Z" fill="#709ACF"/><path id="Vector_6" d="M191.13 110.47C190.22 110.43 189.39 110.82 188.54 111.04C188.05 111.17 187.6 111.48 187.06 111.43C187.02 110.67 187.58 110.12 187.73 109.43C187.97 108.38 188.69 107.51 188.77 106.37C188.8 105.85 189.24 105.38 189.42 104.85C190.03 103.1 190.77 101.41 191.41 99.68C191.97 98.16 192.44 96.6 193.14 95.13C193.5 94.37 193.73 93.54 194.01 92.73C194.21 92.13 194.77 91.69 194.73 90.99C195.49 89.46 195.93 87.81 196.55 86.23C197.18 84.61 197.86 83.01 198.47 81.39C199.09 79.77 199.74 78.16 200.26 76.5C200.55 75.55 200.99 74.65 201.37 73.73C202.24 71.61 203.09 69.49 203.83 67.32C204.18 66.3 204.63 65.33 205.01 64.33C205.81 62.19 206.72 60.08 207.45 57.91C207.78 56.93 208.22 55.99 208.57 55.02C209.13 53.46 209.89 51.97 210.36 50.37C210.39 50.27 210.52 50.2 210.67 50.05C211.71 50.92 212.74 51.82 213.8 52.68C214.87 53.55 215.97 54.38 217.06 55.23C217.15 55.3 217.23 55.4 217.32 55.48C218.3 56.38 219.26 57.32 220.28 58.18C221.75 59.41 223.14 60.73 224.59 61.97C225.74 62.95 226.7 64.1 227.86 65.04C229.59 66.44 230.99 68.19 232.69 69.6C234.37 71 235.9 72.55 237.37 74.14C239.15 76.06 241.03 77.87 242.79 79.8C243.61 80.7 244.44 81.59 245.27 82.48C245.55 82.79 245.76 83.16 246.06 83.57C245.84 83.66 245.61 83.77 245.37 83.84C244.73 84.04 244.1 84.25 243.44 84.4C241.98 84.72 240.64 85.47 239.11 85.55C238.65 85.57 238.21 85.87 237.75 86.01C236.4 86.42 235.04 86.8 233.7 87.22C232.28 87.66 230.9 88.21 229.46 88.54C228.58 88.74 227.73 89.03 226.84 89.2C225.77 89.4 224.68 89.74 223.65 90.14C222.99 90.39 222.3 90.53 221.64 90.77C221 91.01 220.34 91.42 219.58 91.3C218.34 91.92 216.93 92.04 215.68 92.6C215.21 92.81 214.62 92.45 214.28 92.98C213.56 92.88 212.97 93.3 212.32 93.47C210.7 93.88 209.13 94.44 207.53 94.92C205.5 95.53 203.47 96.13 201.4 96.62C200.37 96.87 199.34 97.22 198.31 97.54C197.32 97.85 196.33 98.17 195.35 98.5C195.04 98.61 194.66 98.7 194.46 98.93C194.23 99.19 194.05 99.59 194.03 99.93C194 100.97 193.52 101.89 193.28 102.87C192.99 104.06 192.72 105.27 192.31 106.42C191.84 107.74 191.51 109.11 191.13 110.47Z" fill="#EC81AC"/><path id="Vector_7" d="M148.69 191.27C149.72 190.53 151.4 189.84 152.35 189.57C153.25 189.32 154.2 189.29 155.05 188.88C155.11 188.85 155.21 188.88 155.29 188.88C156.02 188.87 156.74 188.9 157.48 188.67C157.87 188.55 158.4 188.49 158.84 188.81C158.97 188.91 159.21 188.87 159.41 188.88C162.13 189.01 164.63 189.87 166.87 191.38C167.92 192.09 168.97 192.85 169.81 193.82C170.58 194.71 171.31 195.64 171.94 196.64C172.91 198.19 173.44 199.93 174.04 201.64C174.21 202.13 174.24 202.67 174.36 203.18C174.84 205.21 174.56 207.27 174.57 209.31C174.57 210.23 174.29 211.17 174.05 212.08C173.62 213.69 173.1 215.27 172.29 216.73C172.26 217.61 171.56 218.18 171.22 218.92C170.87 219.66 170.26 220.29 169.75 220.95C169.14 221.74 168.54 222.54 167.88 223.28C167.53 223.68 167.06 223.98 166.63 224.3C166.2 224.63 165.87 225.05 165.41 225.36C164.78 225.78 164.23 226.33 163.59 226.77C162.45 227.56 161.19 228.12 159.91 228.58C158.69 229.02 157.45 229.41 156.16 229.67C154.39 230.03 152.63 229.77 150.87 229.88C150.79 229.8 150.71 229.72 150.63 229.64C150.55 229.64 150.47 229.64 150.39 229.64C149.63 228.76 148.89 227.87 148.11 227.01C147.19 226 146.46 224.86 145.84 223.66C145.47 222.94 145.18 222.18 144.87 221.44C144.2 219.84 143.75 218.19 143.67 216.46C143.67 214.78 143.67 213.1 143.67 211.42C143.67 211.18 143.67 210.94 143.67 210.7C143.75 210.61 143.88 210.52 143.9 210.42C143.94 210.2 143.91 209.97 143.91 209.74C143.91 209.58 143.91 209.42 143.91 209.26C144.37 209.15 144.06 208.78 144.15 208.54C144.12 207.78 144.56 207.12 144.63 206.38C144.99 206.36 144.83 206.08 144.87 205.9C144.87 205.82 144.87 205.74 144.87 205.66C145.23 205.64 145.07 205.36 145.11 205.18C145.11 205.1 145.11 205.02 145.11 204.94C145.19 204.86 145.27 204.78 145.35 204.7C145.35 204.54 145.35 204.38 145.35 204.22C145.81 203.94 145.85 203.49 145.83 203.02C146.4 202.68 146.3 202.11 146.31 201.58C146.39 201.5 146.47 201.42 146.55 201.34C146.58 201.19 146.57 201.03 146.64 200.9C147.11 200.02 147.59 199.14 148.07 198.26C148.48 197.5 148.96 196.78 149.49 196.09C150.31 195.01 151.04 193.83 150.85 192.34C150.62 192.11 150.38 191.84 150.1 191.61C150 191.53 149.81 191.54 149.66 191.52C149.55 191.06 149.18 191.37 148.94 191.28C148.85 191.27 148.77 191.27 148.69 191.27Z" fill="#EC81AC"/><path id="Vector_8" d="M57.82 126.78C57.68 125.33 58.25 124.03 58.66 122.7C59.22 120.87 60.1 119.2 61.19 117.64C61.58 117.07 62.02 116.54 62.49 116.02C62.97 115.49 63.52 115.02 64 114.49C65.12 113.25 66.52 112.36 67.89 111.44C69.84 110.12 72.09 109.44 74.25 108.57C75.36 108.54 76.43 108.21 77.51 108.03C78.97 107.79 80.41 107.86 81.85 107.86C83.25 107.87 84.62 108.16 86 108.5C87.64 108.9 89.1901 109.48 90.6701 110.25C91.4601 110.66 92.2 111.19 92.95 111.68C93.88 112.28 94.62 113.1 95.39 113.88C97.01 115.52 98.04 117.5 98.83 119.64C99.1 120.37 99.1901 121.16 99.5401 121.86C99.5601 121.89 99.5401 121.94 99.5501 121.98C99.6301 123.34 99.85 124.72 99.74 126.07C99.66 127.07 99.58 128.12 99.26 129.09C98.97 130 98.58 130.88 98.26 131.79C97.78 133.18 97.0101 134.4 96.1801 135.6C95.9601 135.92 95.69 136.2 95.46 136.5C95.25 136.77 95.09 137.08 94.86 137.33C94 138.22 93.11 139.08 92.25 139.97C92.07 140.16 91.89 140.26 91.63 140.22C90.6 139.63 89.54 139.08 88.54 138.43C87.26 137.6 85.94 136.84 84.58 136.14C82.32 134.97 80.08 133.75 77.71 132.78C76.99 132.49 76.32 132.06 75.59 131.84C73.64 131.26 71.81 130.35 69.85 129.8C68.57 129.44 67.31 128.97 66 128.69C65.24 128.53 64.51 128.25 63.76 128.05C63.04 127.85 62.32 127.61 61.59 127.52C60.31 127.34 59.07 127.03 57.82 126.78Z" fill="#217ABD"/><path id="Vector_9" d="M142.94 128.22C143.38 128.62 143.83 129 144.24 129.41C145.74 130.9 147.23 132.39 148.78 133.94C148.58 134.16 148.41 134.37 148.23 134.56C146.65 136.14 145.05 137.71 143.49 139.31C142.17 140.67 140.79 141.98 139.61 143.46C137.95 145.56 136.21 147.59 134.64 149.77C133.57 151.25 132.48 152.71 131.48 154.23C130.56 155.63 129.65 157.05 128.76 158.48C126.75 161.74 125.1 165.19 123.32 168.57C123.01 169.88 122.08 170.93 121.78 172.25C121.72 172.53 121.47 172.76 121.23 173.13C120.94 172.63 120.64 172.22 120.44 171.77C119.76 170.19 118.74 168.8 117.88 167.32C117.26 166.25 116.53 165.24 115.83 164.21C115.12 163.18 114.39 162.17 113.65 161.16C112.93 160.17 112.1 159.27 111.45 158.24C111.39 158.14 111.28 158.07 111.2 157.98C110.44 157.14 109.63 156.33 108.92 155.45C106.89 152.94 104.44 150.85 102.21 148.53C101.63 147.92 100.91 147.45 100.25 146.91C100.36 146.76 100.46 146.49 100.59 146.47C101.64 146.29 102.47 145.6 103.43 145.22C104.22 144.91 104.95 144.43 105.75 144.19C106.54 143.96 107.2 143.47 108.01 143.26C108.62 143.1 109.21 142.72 109.83 142.46C110.95 141.98 112.01 141.36 113.14 140.93C114.38 140.46 115.56 139.84 116.84 139.45C117.68 139.19 118.44 138.7 119.25 138.34C120.87 137.62 122.47 136.87 124.15 136.29C125.12 135.96 125.99 135.33 126.95 134.98C128.58 134.38 130.08 133.5 131.75 132.98C132.34 132.8 132.91 132.48 133.46 132.21C134.36 131.77 135.29 131.42 136.2 131.01C137.64 130.35 139.05 129.61 140.58 129.15C141.24 128.95 141.86 128.58 142.5 128.29C142.63 128.25 142.79 128.24 142.94 128.22Z" fill="#1E79BC"/><path id="Vector_10" d="M114.64 233.47C114.61 232.84 114.74 232.15 114.51 231.61C114.28 231.05 114.7 230.41 114.16 229.95C114.12 229.92 114.16 229.8 114.15 229.72C114.07 228.75 114.09 227.77 113.88 226.83C113.68 225.9 113.84 224.94 113.63 224.06C113.35 222.92 113.62 221.78 113.4 220.68C113.05 218.91 113.23 217.15 113.19 215.38C113.15 213.62 113.16 211.86 113.19 210.11C113.2 209.38 113.37 208.66 113.41 207.93C113.45 207.21 113.27 206.45 113.46 205.78C113.68 204.96 113.6 204.16 113.67 203.35C113.71 202.86 113.84 202.38 113.9 201.89C113.96 201.4 113.91 200.93 114.1 200.42C114.3 199.88 114.23 199.22 114.33 198.61C114.42 198.05 114.6 197.5 114.63 196.92C114.66 196.35 114.7 195.76 114.88 195.23C115.19 194.3 115.14 193.31 115.51 192.38C115.69 191.92 115.74 191.35 115.81 190.83C115.97 189.6 116.42 188.43 116.65 187.22C116.91 185.83 117.45 184.51 117.77 183.12C118.02 182.05 118.49 181.03 118.85 179.98C119.37 178.48 119.85 176.96 120.39 175.46C120.63 174.79 120.96 174.14 121.32 173.33C121.94 174.5 122.53 175.47 122.97 176.51C123.74 178.31 124.47 180.12 125.2 181.94C125.92 183.73 126.59 185.52 127.13 187.37C127.53 188.73 127.98 190.06 128.31 191.44C128.54 192.41 128.88 193.36 129.08 194.35C129.19 194.9 129.36 195.43 129.47 195.98C129.58 196.54 129.65 197.1 129.76 197.66C129.77 197.7 129.89 197.72 129.96 197.75C129.93 197.9 129.95 198.08 129.87 198.19C129.12 199.27 128.98 200.62 128.28 201.72C128.31 202.53 127.97 203.27 127.78 204.03C127.53 205.01 127.19 205.95 127.07 206.97C127.02 207.38 126.81 207.75 126.82 208.19C126.83 208.63 126.65 209.08 126.61 209.53C126.57 209.97 126.71 210.44 126.58 210.84C126.18 212.04 126.47 213.26 126.35 214.46C126.29 215.09 126.49 215.67 126.59 216.28C126.69 216.88 126.41 217.53 126.84 218.09C126.75 218.99 127.1 219.8 127.32 220.64C127.93 223.07 128.77 225.39 130.27 227.44C130.37 227.58 130.39 227.79 130.44 227.96C130.36 228.24 130.25 228.52 130.21 228.81C130.11 229.48 130.18 230.22 129.92 230.82C129.71 231.31 129.79 231.78 129.65 232.25C129.44 232.96 129.21 233.68 129.24 234.44C128.91 234.52 128.59 234.63 128.26 234.67C127.91 234.71 127.54 234.68 127.18 234.68C126.1 234.68 125.02 234.68 123.94 234.68C122.77 234.68 121.63 234.26 120.44 234.44C119.83 234.09 119.15 234.27 118.5 234.19C117.41 234.05 116.34 233.72 115.22 233.69C115.1 233.68 114.9 233.43 114.64 233.47Z" fill="#709ACF"/><path id="Vector_11" d="M268.57 116.23C268.21 116.27 267.91 116.15 267.59 116C265.7 115.07 263.78 114.25 261.78 113.55C260.71 113.18 259.62 112.78 258.59 112.31C257.4 111.78 256.16 111.42 254.95 110.99C253.17 110.36 251.29 109.98 249.47 109.48C247.75 109 245.97 108.75 244.28 108.15C243.75 107.96 243.17 107.92 242.61 107.84C241.97 107.75 241.21 107.86 240.71 107.55C240.12 107.19 239.43 107.69 238.95 107.13C238.9 107.07 238.72 107.11 238.6 107.11C238.06 107.11 237.55 107.07 237.01 106.9C236.52 106.74 235.93 106.98 235.44 106.63C234.38 106.8 233.36 106.29 232.31 106.41C231.51 106.5 230.79 106.13 230.02 106.15C229.22 106.17 228.4 106.29 227.63 106.13C225.83 105.74 224.02 106.01 222.22 105.92C222.05 105.91 221.79 106.01 221.79 105.68C221.97 105.23 222.45 105.21 222.79 105.08C224.51 104.39 226.18 103.61 227.84 102.8C228.74 102.36 229.7 102.1 230.6 101.64C230.94 101.47 231.35 101.35 231.72 101.17C233.05 100.52 234.4 99.93 235.75 99.32C236.65 98.92 237.57 98.51 238.51 98.17C239.44 97.83 240.32 97.32 241.23 96.92C242.61 96.31 244.02 95.75 245.4 95.12C247.62 94.11 249.91 93.25 252.05 92.09C253 91.99 253.69 91.25 254.61 91.03C255.47 90.82 256.25 90.37 257.05 89.97C258.01 89.5 258.99 89.06 259.98 88.65C261.21 88.14 262.42 87.6 263.67 87.13C265.12 86.58 266.45 85.75 267.88 85.14C269.14 84.61 270.35 83.97 271.68 83.6C271.75 83.58 271.82 83.54 271.88 83.51C273.11 82.92 274.31 82.24 275.59 81.75C277.04 81.2 278.41 80.47 279.89 79.96C281.35 79.46 282.7 78.66 284.11 78C284.33 77.9 284.58 77.88 285.09 77.75C284.11 78.43 283.38 78.94 282.65 79.45C281.17 80.5 279.69 81.57 278.21 82.62C277.44 83.17 276.67 83.72 275.9 84.27C275.35 84.67 274.78 85.05 274.24 85.46C272.76 86.59 271.21 87.63 269.71 88.73C268.65 89.51 267.54 90.23 266.47 91C265.15 91.95 263.82 92.89 262.49 93.84C261.35 94.65 260.21 95.47 259.06 96.28C258.66 96.56 258.25 96.82 257.8 97.13C257.68 97.4 257.83 97.62 258.05 97.89C259.28 99.44 260.48 101.02 261.66 102.61C263.63 105.28 265.15 108.18 266.63 111.11C267.23 112.29 267.61 113.58 268.09 114.82C268.26 115.32 268.41 115.77 268.57 116.23Z" fill="#EC81AC"/><path id="Vector_12" d="M57.82 126.78C59.07 127.03 60.31 127.35 61.59 127.51C62.32 127.61 63.04 127.85 63.76 128.04C64.51 128.24 65.25 128.52 66 128.68C67.31 128.96 68.56 129.43 69.85 129.79C71.81 130.34 73.64 131.25 75.59 131.83C76.33 132.05 77 132.48 77.71 132.77C80.07 133.74 82.31 134.96 84.58 136.13C85.94 136.83 87.26 137.59 88.54 138.42C89.54 139.07 90.6 139.61 91.63 140.21C89.91 141.64 87.97 142.72 85.93 143.63C85.59 143.78 85.25 143.92 84.91 144.05C84.18 144.31 83.4 144.41 82.67 144.7C81.95 144.99 81.14 145.04 80.38 145.22C79.48 145.43 78.54 145.44 77.61 145.48C76.65 145.52 75.66 145.64 74.75 145.45C73.72 145.23 72.68 145.13 71.66 144.87C70.65 144.61 69.67 144.26 68.68 143.96C67.22 143.52 65.97 142.71 64.63 141.62C63.95 141.07 63.17 140.62 62.56 139.99C61.79 139.19 61.14 138.28 60.48 137.39C60.04 136.79 59.55 136.17 59.31 135.49C59.06 134.8 58.77 134.11 58.51 133.43C58.26 132.77 58.27 132.03 57.84 131.43C57.82 129.94 57.44 128.48 57.61 126.98C57.6 126.9 57.74 126.84 57.82 126.78Z" fill="#518BC7"/><path id="Vector_13" d="M145.33 204.22C145.33 204.38 145.33 204.54 145.33 204.7C145.25 204.78 145.17 204.86 145.09 204.94C145.09 205.02 145.09 205.1 145.09 205.18C144.73 205.2 144.89 205.48 144.85 205.66C144.85 205.74 144.85 205.82 144.85 205.9C144.49 205.92 144.65 206.2 144.61 206.38C144.54 207.12 144.1 207.78 144.13 208.54C143.67 208.65 143.98 209.02 143.89 209.26C143.89 209.42 143.89 209.58 143.89 209.74C143.81 209.83 143.68 209.92 143.66 210.02C143.62 210.24 143.65 210.47 143.65 210.7C143.65 210.94 143.65 211.18 143.65 211.42C143.57 211.48 143.42 211.55 143.42 211.61C143.41 213.16 143.41 214.71 143.42 216.27C143.42 216.33 143.57 216.4 143.65 216.46C143.73 218.2 144.18 219.85 144.85 221.44C145.16 222.18 145.45 222.94 145.82 223.66C146.44 224.87 147.17 226 148.09 227.01C148.87 227.87 149.61 228.76 150.37 229.64C149.21 229.68 148.15 229.21 147.1 228.85C145.62 228.34 144.23 227.62 143.02 226.54C142.35 225.95 141.68 225.35 141.03 224.73C140.15 223.87 139.51 222.83 138.86 221.8C138.06 220.54 137.49 219.18 137.1 217.73C137.02 217.43 137 217.14 136.94 216.84C136.88 216.55 136.78 216.27 136.71 215.98C136.63 215.66 136.52 215.33 136.48 215C136.44 214.65 136.57 214.24 136.45 213.93C136.1 213.05 136.17 212.14 136.25 211.27C136.43 209.43 136.45 207.55 137.17 205.79C137.17 204.62 137.77 203.63 138.23 202.64C138.67 201.67 139.02 200.61 139.8 199.82C140.88 197.49 142.61 195.67 144.48 193.99C145.34 193.22 146.18 192.35 147.35 191.98C147.66 191.88 147.78 191.38 148.23 191.51C148.31 191.43 148.39 191.35 148.47 191.27C148.55 191.27 148.63 191.27 148.71 191.27C148.79 191.27 148.87 191.27 148.95 191.27C149.06 191.73 149.43 191.42 149.67 191.51C149.82 191.54 150 191.52 150.11 191.6C150.39 191.83 150.62 192.1 150.86 192.33C151.04 193.83 150.31 195 149.5 196.08C148.97 196.78 148.5 197.49 148.08 198.25C147.6 199.13 147.12 200 146.65 200.89C146.58 201.02 146.59 201.18 146.56 201.33C146.48 201.41 146.4 201.49 146.32 201.57C146.17 201.73 145.89 202.44 145.84 202.77C145.42 203.3 145.24 203.75 145.25 204.21C145.22 204.22 145.29 204.22 145.33 204.22Z" fill="#518BC7"/><path id="Vector_14" d="M159.96 143.32C159.41 143.44 159.12 142.93 158.79 142.69C157.69 141.91 156.71 140.95 155.65 140.1C154.35 139.04 153.11 137.91 151.84 136.83C150.81 135.96 149.94 134.95 148.87 134.07C149.93 133.12 150.93 132.17 151.98 131.28C153.24 130.21 154.52 129.15 155.84 128.15C157.01 127.25 158.27 126.46 159.44 125.56C160.37 124.84 161.42 124.32 162.35 123.58C163.02 123.05 163.77 122.61 164.54 122.23C165.58 121.72 166.5 121.02 167.52 120.47C168.86 119.75 170.16 118.95 171.52 118.23C171.65 118.16 171.81 118.17 171.96 118.14C172.47 118.3 172.09 118.74 172.24 119.03C172.43 119.43 172.57 119.86 172.67 120.29C172.71 120.45 172.6 120.65 172.52 120.82C171.87 122.12 171.15 123.37 170.42 124.62C169.69 125.87 169.08 127.18 168.36 128.43C167.53 129.88 166.83 131.41 165.85 132.78C165.6 133.14 165.44 133.56 165.25 133.96C164.3 135.97 162.99 137.79 162.12 139.85C161.5 140.44 161.3 141.26 160.92 141.98C160.65 142.46 160.28 142.88 159.96 143.32Z" fill="#709ACF"/><path id="Vector_15" d="M176.9 104.44C177.35 104.22 177.58 104.09 177.82 104.01C179.24 103.53 180.55 103.79 181.89 104.69C182.44 105.06 182.75 105.62 183.2 106.06C183.38 106.24 183.4 106.61 183.45 106.9C183.52 107.35 183.49 107.79 183.64 108.25C183.78 108.67 183.49 109.26 183.32 109.75C182.77 111.33 180.9 112.62 179.31 112.38C178.82 112.31 178.35 112.42 177.83 112.2C176.41 111.6 175.53 110.79 175.05 109.43C174.47 107.79 174.99 106.46 176.07 105.26C176.37 104.94 176.69 104.65 176.9 104.44Z" fill="#528BC7"/><path id="Vector_16" d="M129.27 234.43C129.24 233.67 129.47 232.95 129.68 232.24C129.82 231.77 129.74 231.3 129.95 230.81C130.21 230.21 130.14 229.47 130.24 228.8C130.28 228.51 130.39 228.24 130.47 227.95C131.44 228.52 131.85 229.59 132.62 230.34C133.41 231.11 134.14 231.94 134.9 232.74C135.55 232.86 135.75 233.5 136.25 233.82C135.49 234.2 134.69 234.06 133.97 234.23C133.19 234.41 132.44 234.41 131.67 234.42C130.86 234.44 130.07 234.43 129.27 234.43Z" fill="#508BC7"/><path id="Vector_17" d="M48.23 125.58C48.47 125.58 48.71 125.58 48.95 125.58C48.84 126.12 48.73 126.67 48.58 127.42C48.52 127.14 48.48 126.98 48.45 126.82C48.38 126.87 48.3 126.92 48.23 126.97C48.23 126.5 48.23 126.04 48.23 125.58Z" fill="#508AC7"/><path id="Vector_18" d="M221.34 105.68C221.26 105.76 221.18 105.84 221.1 105.92C221.18 105.84 221.26 105.76 221.34 105.68Z" fill="#EC81AC"/><path id="Vector_19" d="M148.45 191.27C148.37 191.35 148.29 191.43 148.21 191.51C148.29 191.43 148.37 191.35 148.45 191.27Z" fill="#B9ABD0"/><path id="Vector_20" d="M150.61 229.64C150.69 229.72 150.77 229.8 150.85 229.88C150.77 229.8 150.69 229.72 150.61 229.64Z" fill="#B9ABD0"/><path id="Vector_21" d="M143.65 216.45C143.57 216.39 143.42 216.32 143.42 216.26C143.41 214.71 143.41 213.16 143.42 211.6C143.42 211.54 143.57 211.47 143.65 211.41C143.65 213.09 143.65 214.77 143.65 216.45Z" fill="#B9ABD0"/><path id="Vector_22" d="M145.33 204.22C145.29 204.22 145.22 204.22 145.22 204.22C145.21 203.76 145.39 203.32 145.81 202.78C145.81 202.86 145.81 202.94 145.81 203.02C145.83 203.5 145.79 203.94 145.33 204.22Z" fill="#9C9BC8"/><path id="Vector_23" d="M145.81 203.02C145.81 202.94 145.81 202.86 145.81 202.78C145.86 202.45 146.14 201.74 146.29 201.58C146.28 202.11 146.39 202.68 145.81 203.02Z" fill="#B9ABD0"/><path id="Vector_24" d="M143.65 210.7C143.65 210.47 143.63 210.24 143.66 210.02C143.68 209.92 143.81 209.83 143.89 209.74C143.89 209.97 143.91 210.2 143.88 210.42C143.87 210.52 143.73 210.6 143.65 210.7Z" fill="#B9ABD0"/><path id="Vector_25" d="M149.65 191.51C149.41 191.42 149.04 191.73 148.93 191.27C149.17 191.37 149.54 191.05 149.65 191.51Z" fill="#B9ABD0"/><path id="Vector_26" d="M143.89 209.26C143.98 209.02 143.67 208.65 144.13 208.54C144.04 208.77 144.36 209.14 143.89 209.26Z" fill="#B9ABD0"/><path id="Vector_27" d="M144.85 205.66C144.89 205.48 144.73 205.2 145.09 205.18C145.06 205.36 145.21 205.64 144.85 205.66Z" fill="#9C9BC8"/><path id="Vector_28" d="M144.61 206.38C144.65 206.2 144.49 205.92 144.85 205.9C144.82 206.08 144.97 206.36 144.61 206.38Z" fill="#9C9BC8"/><path id="Vector_29" d="M146.29 201.58C146.37 201.5 146.45 201.42 146.53 201.34C146.45 201.42 146.37 201.5 146.29 201.58Z" fill="#B9ABD0"/><path id="Vector_30" d="M145.09 204.94C145.17 204.86 145.25 204.78 145.33 204.7C145.25 204.78 145.17 204.86 145.09 204.94Z" fill="#9C9BC8"/></g></g><g id="Group_3"><path id="Vector_31" d="M30.7 304.47H24.74L22.11 296.12H8.81L6.17999 304.47H0.299988L12.52 268.35H18.48L30.7 304.47ZM20.65 291.56L15.55 275.32L10.29 291.56H20.65Z" fill="#508BC7"/><path id="Vector_32" d="M49.11 304.47H36.43V268.35H48.65C54.58 268.35 58.83 270.18 61.41 273.84C63.47 276.73 64.5 280.93 64.5 286.45C64.5 293.31 62.64 298.26 58.93 301.3C56.35 303.42 53.08 304.47 49.11 304.47ZM41.91 299.75H49.72C52.35 299.75 54.46 298.74 56.06 296.73C57.92 294.46 58.84 291.03 58.84 286.44C58.84 281.34 57.68 277.62 55.36 275.3C53.81 273.81 51.93 273.06 49.71 273.06H41.9V299.75H41.91Z" fill="#508BC7"/><path id="Vector_33" d="M99.76 304.47H93.8L91.17 296.12H77.87L75.24 304.47H69.36L81.58 268.35H87.54L99.76 304.47ZM89.71 291.56L84.61 275.32L79.35 291.56H89.71Z" fill="#508BC7"/><path id="Vector_34" d="M140.44 304.47H135.57V274.46L126.13 304.47H119.87L110.43 274.46V304.47H105.48V268.35H113.29L122.96 299.98L132.71 268.35H140.44V304.47Z" fill="#508BC7"/><path id="Vector_35" d="M190.4 300.06L189.63 304.62C188.8 304.88 187.67 305.01 186.23 305.01C184.22 305.01 182.1 303.72 179.89 301.14C178.81 302.33 177.39 303.27 175.64 303.96C173.89 304.66 172.03 305 170.07 305C166.31 305 163.42 304.12 161.41 302.37C159.4 300.72 158.39 298.32 158.39 295.18C158.39 289.82 160.71 286.16 165.35 284.2C163.29 281.31 162.26 278.53 162.26 275.85C162.26 273.48 163.08 271.52 164.73 269.97C166.33 268.48 168.44 267.73 171.07 267.73C174.27 267.73 177.1 268.27 179.58 269.35L178.73 273.99C176.51 272.96 174.22 272.44 171.85 272.44C168.96 272.44 167.52 273.6 167.52 275.92C167.52 277.83 168.25 279.85 169.72 281.99C171.19 284.13 174.5 288.01 179.66 293.63C180.33 292.44 180.77 291.15 180.98 289.76C181.19 288.37 181.29 286.15 181.29 283.11H190.73L189.96 287.52H185.71C185.71 289.17 185.46 290.91 184.98 292.74C184.49 294.57 183.86 296.1 183.09 297.34C184.12 298.58 184.95 299.4 185.56 299.82C186.18 300.23 186.95 300.44 187.88 300.44C188.81 300.44 189.63 300.32 190.4 300.06ZM176.71 297.9C174.44 295.58 171.45 292.18 167.74 287.69C165.06 288.62 163.72 290.91 163.72 294.57C163.72 298.54 165.91 300.53 170.29 300.53C171.42 300.53 172.64 300.27 173.92 299.76C175.22 299.24 176.15 298.62 176.71 297.9Z" fill="#ED81AD"/><path id="Vector_36" d="M234.79 304.47H229.38V288.31H213.68V304.47H208.19V268.35H213.68V283.66H229.38V268.35H234.79V304.47Z" fill="#ED81AD"/><path id="Vector_37" d="M257.84 305.01C252.94 305.01 249.15 303.49 246.47 300.45C243.74 297.31 242.37 292.64 242.37 286.45C242.37 279.44 244.12 274.36 247.63 271.21C250.21 268.89 253.61 267.73 257.84 267.73C262.74 267.73 266.5 269.28 269.13 272.37C271.86 275.57 273.23 280.26 273.23 286.45C273.23 293.41 271.48 298.46 267.97 301.61C265.39 303.88 262.02 305.01 257.84 305.01ZM257.84 300.14C261.14 300.14 263.59 299.08 265.19 296.97C266.84 294.75 267.66 291.25 267.66 286.45C267.66 281.04 266.6 277.22 264.49 275C262.94 273.4 260.73 272.6 257.84 272.6C254.54 272.6 252.09 273.68 250.49 275.85C248.79 278.12 247.94 281.65 247.94 286.45C247.94 291.81 249.02 295.58 251.19 297.74C252.74 299.34 254.95 300.14 257.84 300.14Z" fill="#ED81AD"/><path id="Vector_38" d="M308.5 304.47H302.54L299.91 296.12H286.61L283.98 304.47H278.1L290.32 268.35H296.28L308.5 304.47ZM298.44 291.56L293.34 275.32L288.08 291.56H298.44Z" fill="#ED81AD"/><path id="Vector_39" d="M340.83 304.47H335.42V288.31H319.72V304.47H314.23V268.35H319.72V283.66H335.42V268.35H340.83V304.47Z" fill="#ED81AD"/></g></g><style> @keyframes translateY { 0%, 100% { transform: translateY(0px); } 50% { transform: translateY(4px); } }</style></svg>